<?xml version="1.0" encoding="UTF-8" standalone="no"?>
<!DOCTYPE svg PUBLIC "-//W3C//DTD SVG 1.1//EN"
 "http://www.w3.org/Graphics/SVG/1.1/DTD/svg11.dtd">
<!-- Generated by graphviz version 14.1.2 (20260124.0452)
 -->
<!-- Title: TuringMachine Pages: 1 -->
<svg width="800pt" height="157pt"
 viewBox="0.00 0.00 800.00 157.00" xmlns="http://www.w3.org/2000/svg" xmlns:xlink="http://www.w3.org/1999/xlink">
<g id="graph0" class="graph" transform="scale(1 1) rotate(0) translate(4 152.77)">
<title>TuringMachine</title>
<polygon fill="white" stroke="none" points="-4,4 -4,-152.77 796.38,-152.77 796.38,4 -4,4"/>
<!-- success -->
<g id="node1" class="node">
<title>success</title>
<ellipse fill="green" stroke="green" cx="738.05" cy="-54.33" rx="50.33" ry="50.33"/>
<ellipse fill="none" stroke="green" cx="738.05" cy="-54.33" rx="54.33" ry="54.33"/>
<text xml:space="preserve" text-anchor="middle" x="738.05" y="-49.28" font-family="monospace" font-size="14.00" fill="#e4e4e7">success</text>
</g>
<!-- fail -->
<g id="node2" class="node">
<title>fail</title>
<ellipse fill="red" stroke="red" cx="37.44" cy="-111.33" rx="33.44" ry="33.44"/>
<ellipse fill="none" stroke="red" cx="37.44" cy="-111.33" rx="37.44" ry="37.44"/>
<text xml:space="preserve" text-anchor="middle" x="37.44" y="-106.28" font-family="monospace" font-size="14.00" fill="#e4e4e7">fail</text>
</g>
<!-- entry -->
<g id="node3" class="node">
<title>entry</title>
<ellipse fill="#06b6d4" stroke="#06b6d4" cx="37.44" cy="-54.33" rx="1.8" ry="1.8"/>
</g>
<!-- start -->
<g id="node4" class="node">
<title>start</title>
<ellipse fill="#06b6d4" stroke="#06b6d4" cx="150.94" cy="-54.33" rx="39.07" ry="39.07"/>
<text xml:space="preserve" text-anchor="middle" x="150.94" y="-49.28" font-family="monospace" font-size="14.00" fill="#e4e4e7">start</text>
</g>
<!-- entry&#45;&gt;start -->
<g id="edge1" class="edge">
<title>entry&#45;&gt;start</title>
<path fill="none" stroke="#06b6d4" d="M39.69,-54.33C45.86,-54.33 73.78,-54.33 99.97,-54.33"/>
<polygon fill="#06b6d4" stroke="#06b6d4" points="99.9,-57.83 109.9,-54.33 99.9,-50.83 99.9,-57.83"/>
</g>
<!-- start&#45;&gt;start -->
<g id="edge2" class="edge">
<title>start&#45;&gt;start</title>
<path fill="none" stroke="#06b6d4" d="M140.19,-92.19C140.61,-103.04 144.2,-111.4 150.94,-111.4 155.06,-111.4 157.99,-108.29 159.75,-103.41"/>
<polygon fill="#06b6d4" stroke="#06b6d4" points="163.18,-104.14 161.44,-93.69 156.28,-102.94 163.18,-104.14"/>
<text xml:space="preserve" text-anchor="middle" x="150.94" y="-114.6" font-family="monospace" font-size="14.00" fill="#a1a1aa">1 / 1, R</text>
</g>
<!-- q1 -->
<g id="node5" class="node">
<title>q1</title>
<ellipse fill="#06b6d4" stroke="#06b6d4" cx="314.19" cy="-54.33" rx="22.18" ry="22.18"/>
<text xml:space="preserve" text-anchor="middle" x="314.19" y="-49.28" font-family="monospace" font-size="14.00" fill="#e4e4e7">q1</text>
</g>
<!-- start&#45;&gt;q1 -->
<g id="edge3" class="edge">
<title>start&#45;&gt;q1</title>
<path fill="none" stroke="#06b6d4" d="M190.16,-54.33C217.62,-54.33 254.25,-54.33 280.39,-54.33"/>
<polygon fill="#06b6d4" stroke="#06b6d4" points="280.07,-57.83 290.07,-54.33 280.07,-50.83 280.07,-57.83"/>
<text xml:space="preserve" text-anchor="middle" x="241.01" y="-57.53" font-family="monospace" font-size="14.00" fill="#a1a1aa">0 / 1, R</text>
</g>
<!-- q1&#45;&gt;q1 -->
<g id="edge4" class="edge">
<title>q1&#45;&gt;q1</title>
<path fill="none" stroke="#06b6d4" d="M301.33,-72.93C298.47,-84.04 302.76,-94.51 314.19,-94.51 321.52,-94.51 325.91,-90.21 327.37,-84.2"/>
<polygon fill="#06b6d4" stroke="#06b6d4" points="330.87,-84.34 327.1,-74.44 323.87,-84.53 330.87,-84.34"/>
<text xml:space="preserve" text-anchor="middle" x="314.19" y="-97.71" font-family="monospace" font-size="14.00" fill="#a1a1aa">1 / 1, R</text>
</g>
<!-- q2 -->
<g id="node6" class="node">
<title>q2</title>
<ellipse fill="#06b6d4" stroke="#06b6d4" cx="526.55" cy="-54.33" rx="22.18" ry="22.18"/>
<text xml:space="preserve" text-anchor="middle" x="526.55" y="-49.28" font-family="monospace" font-size="14.00" fill="#e4e4e7">q2</text>
</g>
<!-- q1&#45;&gt;q2 -->
<g id="edge5" class="edge">
<title>q1&#45;&gt;q2</title>
<path fill="none" stroke="#06b6d4" d="M336.52,-54.33C373.37,-54.33 449.2,-54.33 492.78,-54.33"/>
<polygon fill="#06b6d4" stroke="#06b6d4" points="492.65,-57.83 502.65,-54.33 492.65,-50.83 492.65,-57.83"/>
<text xml:space="preserve" text-anchor="middle" x="420.37" y="-57.53" font-family="monospace" font-size="14.00" fill="#a1a1aa">BLANK / BLANK, L</text>
</g>
<!-- q2&#45;&gt;success -->
<g id="edge6" class="edge">
<title>q2&#45;&gt;success</title>
<path fill="none" stroke="#06b6d4" d="M549.18,-54.33C577.91,-54.33 629.92,-54.33 671.95,-54.33"/>
<polygon fill="#06b6d4" stroke="#06b6d4" points="671.71,-57.83 681.71,-54.33 671.71,-50.83 671.71,-57.83"/>
<text xml:space="preserve" text-anchor="middle" x="616.23" y="-57.53" font-family="monospace" font-size="14.00" fill="#a1a1aa">1 / BLANK, S</text>
</g>
</g>
</svg>
