<?xml version="1.0" encoding="UTF-8" standalone="no"?>
<!DOCTYPE svg PUBLIC "-//W3C//DTD SVG 1.1//EN"
 "http://www.w3.org/Graphics/SVG/1.1/DTD/svg11.dtd">
<!-- Generated by graphviz version 14.1.2 (20260124.0452)
 -->
<!-- Title: TuringMachine Pages: 1 -->
<svg width="813pt" height="281pt"
 viewBox="0.00 0.00 813.00 281.00" xmlns="http://www.w3.org/2000/svg" xmlns:xlink="http://www.w3.org/1999/xlink">
<g id="graph0" class="graph" transform="scale(1 1) rotate(0) translate(4 276.51)">
<title>TuringMachine</title>
<polygon fill="white" stroke="none" points="-4,4 -4,-276.51 809,-276.51 809,4 -4,4"/>
<!-- success -->
<g id="node1" class="node">
<title>success</title>
<ellipse fill="green" stroke="green" cx="378.56" cy="-218.18" rx="50.33" ry="50.33"/>
<ellipse fill="none" stroke="green" cx="378.56" cy="-218.18" rx="54.33" ry="54.33"/>
<text xml:space="preserve" text-anchor="middle" x="378.56" y="-213.13" font-family="monospace" font-size="14.00" fill="#e4e4e7">success</text>
</g>
<!-- fail -->
<g id="node2" class="node">
<title>fail</title>
<ellipse fill="red" stroke="red" cx="37.44" cy="-113.18" rx="33.44" ry="33.44"/>
<ellipse fill="none" stroke="red" cx="37.44" cy="-113.18" rx="37.44" ry="37.44"/>
<text xml:space="preserve" text-anchor="middle" x="37.44" y="-108.13" font-family="monospace" font-size="14.00" fill="#e4e4e7">fail</text>
</g>
<!-- entry -->
<g id="node3" class="node">
<title>entry</title>
<ellipse fill="#06b6d4" stroke="#06b6d4" cx="37.44" cy="-56.18" rx="1.8" ry="1.8"/>
</g>
<!-- q0 -->
<g id="node4" class="node">
<title>q0</title>
<ellipse fill="#06b6d4" stroke="#06b6d4" cx="134.05" cy="-56.18" rx="22.18" ry="22.18"/>
<text xml:space="preserve" text-anchor="middle" x="134.05" y="-51.13" font-family="monospace" font-size="14.00" fill="#e4e4e7">q0</text>
</g>
<!-- entry&#45;&gt;q0 -->
<g id="edge1" class="edge">
<title>entry&#45;&gt;q0</title>
<path fill="none" stroke="#06b6d4" d="M39.5,-56.18C45.5,-56.18 75.76,-56.18 100.27,-56.18"/>
<polygon fill="#06b6d4" stroke="#06b6d4" points="100.19,-59.68 110.19,-56.18 100.19,-52.68 100.19,-59.68"/>
</g>
<!-- q0&#45;&gt;success -->
<g id="edge7" class="edge">
<title>q0&#45;&gt;success</title>
<path fill="none" stroke="#06b6d4" d="M152.89,-68.09C188.38,-91.8 269.14,-145.75 323.52,-182.08"/>
<polygon fill="#06b6d4" stroke="#06b6d4" points="321.5,-184.94 331.76,-187.58 325.39,-179.12 321.5,-184.94"/>
<text xml:space="preserve" text-anchor="middle" x="240.23" y="-173.51" font-family="monospace" font-size="14.00" fill="#a1a1aa">BLANK / BLANK, S</text>
</g>
<!-- q0&#45;&gt;q0 -->
<g id="edge2" class="edge">
<title>q0&#45;&gt;q0</title>
<path fill="none" stroke="#06b6d4" d="M126.61,-77.26C125.69,-87.4 128.18,-96.36 134.05,-96.36 137.55,-96.36 139.84,-93.2 140.93,-88.51"/>
<polygon fill="#06b6d4" stroke="#06b6d4" points="144.42,-88.94 141.42,-78.77 137.42,-88.59 144.42,-88.94"/>
<text xml:space="preserve" text-anchor="middle" x="134.05" y="-116.06" font-family="monospace" font-size="14.00" fill="#a1a1aa">X / X, R</text>
<text xml:space="preserve" text-anchor="middle" x="134.05" y="-99.56" font-family="monospace" font-size="14.00" fill="#a1a1aa">b / b, R</text>
</g>
<!-- q1 -->
<g id="node5" class="node">
<title>q1</title>
<ellipse fill="#06b6d4" stroke="#06b6d4" cx="378.56" cy="-56.18" rx="22.18" ry="22.18"/>
<text xml:space="preserve" text-anchor="middle" x="378.56" y="-51.13" font-family="monospace" font-size="14.00" fill="#e4e4e7">q1</text>
</g>
<!-- q0&#45;&gt;q1 -->
<g id="edge3" class="edge">
<title>q0&#45;&gt;q1</title>
<path fill="none" stroke="#06b6d4" d="M156.58,-56.18C199.18,-56.18 294.49,-56.18 344.88,-56.18"/>
<polygon fill="#06b6d4" stroke="#06b6d4" points="344.57,-59.68 354.57,-56.18 344.57,-52.68 344.57,-59.68"/>
<text xml:space="preserve" text-anchor="middle" x="240.23" y="-59.38" font-family="monospace" font-size="14.00" fill="#a1a1aa">a / X, L</text>
</g>
<!-- q1&#45;&gt;q1 -->
<g id="edge4" class="edge">
<title>q1&#45;&gt;q1</title>
<path fill="none" stroke="#06b6d4" d="M359.52,-67.69C346.01,-80.97 352.35,-96.36 378.56,-96.36 398.63,-96.36 407.05,-87.34 403.83,-77.15"/>
<polygon fill="#06b6d4" stroke="#06b6d4" points="406.86,-75.39 398.43,-68.96 401.01,-79.24 406.86,-75.39"/>
<text xml:space="preserve" text-anchor="middle" x="378.56" y="-132.56" font-family="monospace" font-size="14.00" fill="#a1a1aa">a / a, L</text>
<text xml:space="preserve" text-anchor="middle" x="378.56" y="-116.06" font-family="monospace" font-size="14.00" fill="#a1a1aa">b / b, L</text>
<text xml:space="preserve" text-anchor="middle" x="378.56" y="-99.56" font-family="monospace" font-size="14.00" fill="#a1a1aa">X / X, L</text>
</g>
<!-- q2 -->
<g id="node6" class="node">
<title>q2</title>
<ellipse fill="#06b6d4" stroke="#06b6d4" cx="623.07" cy="-56.18" rx="22.18" ry="22.18"/>
<text xml:space="preserve" text-anchor="middle" x="623.07" y="-51.13" font-family="monospace" font-size="14.00" fill="#e4e4e7">q2</text>
</g>
<!-- q1&#45;&gt;q2 -->
<g id="edge8" class="edge">
<title>q1&#45;&gt;q2</title>
<path fill="none" stroke="#06b6d4" d="M401.08,-56.18C443.69,-56.18 539,-56.18 589.39,-56.18"/>
<polygon fill="#06b6d4" stroke="#06b6d4" points="589.08,-59.68 599.08,-56.18 589.08,-52.68 589.08,-59.68"/>
<text xml:space="preserve" text-anchor="middle" x="516.89" y="-59.38" font-family="monospace" font-size="14.00" fill="#a1a1aa">BLANK / BLANK, R</text>
</g>
<!-- q2&#45;&gt;q2 -->
<g id="edge9" class="edge">
<title>q2&#45;&gt;q2</title>
<path fill="none" stroke="#06b6d4" d="M610.2,-74.78C607.34,-85.89 611.63,-96.36 623.07,-96.36 630.39,-96.36 634.78,-92.06 636.24,-86.05"/>
<polygon fill="#06b6d4" stroke="#06b6d4" points="639.75,-86.19 635.97,-76.29 632.75,-86.38 639.75,-86.19"/>
<text xml:space="preserve" text-anchor="middle" x="623.07" y="-116.06" font-family="monospace" font-size="14.00" fill="#a1a1aa">X / X, R</text>
<text xml:space="preserve" text-anchor="middle" x="623.07" y="-99.56" font-family="monospace" font-size="14.00" fill="#a1a1aa">a / a, R</text>
</g>
<!-- q3 -->
<g id="node7" class="node">
<title>q3</title>
<ellipse fill="#06b6d4" stroke="#06b6d4" cx="772" cy="-22.18" rx="22.18" ry="22.18"/>
<text xml:space="preserve" text-anchor="middle" x="772" y="-17.13" font-family="monospace" font-size="14.00" fill="#e4e4e7">q3</text>
</g>
<!-- q2&#45;&gt;q3 -->
<g id="edge5" class="edge">
<title>q2&#45;&gt;q3</title>
<path fill="none" stroke="#06b6d4" d="M645.12,-51.31C669.67,-45.63 710.51,-36.18 738.99,-29.58"/>
<polygon fill="#06b6d4" stroke="#06b6d4" points="739.56,-33.05 748.51,-27.38 737.98,-26.23 739.56,-33.05"/>
<text xml:space="preserve" text-anchor="middle" x="696.25" y="-50.26" font-family="monospace" font-size="14.00" fill="#a1a1aa">b / X, L</text>
</g>
<!-- q3&#45;&gt;q0 -->
<g id="edge10" class="edge">
<title>q3&#45;&gt;q0</title>
<path fill="none" stroke="#06b6d4" d="M749.55,-21.14C685.07,-18.28 487.31,-11.35 324.23,-25.18 268.72,-29.88 204.93,-41.69 167.41,-49.3"/>
<polygon fill="#06b6d4" stroke="#06b6d4" points="166.77,-45.86 157.68,-51.3 168.18,-52.71 166.77,-45.86"/>
<text xml:space="preserve" text-anchor="middle" x="516.89" y="-21.48" font-family="monospace" font-size="14.00" fill="#a1a1aa">BLANK / BLANK, R</text>
</g>
<!-- q3&#45;&gt;q3 -->
<g id="edge6" class="edge">
<title>q3&#45;&gt;q3</title>
<path fill="none" stroke="#06b6d4" d="M758.79,-40.36C755.61,-51.63 760.01,-62.36 772,-62.36 779.67,-62.36 784.24,-57.95 785.69,-51.83"/>
<polygon fill="#06b6d4" stroke="#06b6d4" points="789.19,-51.71 785.26,-41.87 782.19,-52.01 789.19,-51.71"/>
<text xml:space="preserve" text-anchor="middle" x="772" y="-98.56" font-family="monospace" font-size="14.00" fill="#a1a1aa">a / a, L</text>
<text xml:space="preserve" text-anchor="middle" x="772" y="-82.06" font-family="monospace" font-size="14.00" fill="#a1a1aa">b / b, L</text>
<text xml:space="preserve" text-anchor="middle" x="772" y="-65.56" font-family="monospace" font-size="14.00" fill="#a1a1aa">X / X, L</text>
</g>
</g>
</svg>
