<?xml version="1.0" encoding="UTF-8" standalone="no"?>
<!DOCTYPE svg PUBLIC "-//W3C//DTD SVG 1.1//EN"
 "http://www.w3.org/Graphics/SVG/1.1/DTD/svg11.dtd">
<!-- Generated by graphviz version 14.1.2 (20260124.0452)
 -->
<!-- Title: TuringMachine Pages: 1 -->
<svg width="441pt" height="157pt"
 viewBox="0.00 0.00 441.00 157.00" xmlns="http://www.w3.org/2000/svg" xmlns:xlink="http://www.w3.org/1999/xlink">
<g id="graph0" class="graph" transform="scale(1 1) rotate(0) translate(4 152.77)">
<title>TuringMachine</title>
<polygon fill="white" stroke="none" points="-4,4 -4,-152.77 436.89,-152.77 436.89,4 -4,4"/>
<!-- success -->
<g id="node1" class="node">
<title>success</title>
<ellipse fill="green" stroke="green" cx="378.56" cy="-54.33" rx="50.33" ry="50.33"/>
<ellipse fill="none" stroke="green" cx="378.56" cy="-54.33" rx="54.33" ry="54.33"/>
<text xml:space="preserve" text-anchor="middle" x="378.56" y="-49.28" font-family="monospace" font-size="14.00" fill="#e4e4e7">success</text>
</g>
<!-- fail -->
<g id="node2" class="node">
<title>fail</title>
<ellipse fill="red" stroke="red" cx="37.44" cy="-111.33" rx="33.44" ry="33.44"/>
<ellipse fill="none" stroke="red" cx="37.44" cy="-111.33" rx="37.44" ry="37.44"/>
<text xml:space="preserve" text-anchor="middle" x="37.44" y="-106.28" font-family="monospace" font-size="14.00" fill="#e4e4e7">fail</text>
</g>
<!-- entry -->
<g id="node3" class="node">
<title>entry</title>
<ellipse fill="#06b6d4" stroke="#06b6d4" cx="37.44" cy="-54.33" rx="1.8" ry="1.8"/>
</g>
<!-- q0 -->
<g id="node4" class="node">
<title>q0</title>
<ellipse fill="#06b6d4" stroke="#06b6d4" cx="134.05" cy="-54.33" rx="22.18" ry="22.18"/>
<text xml:space="preserve" text-anchor="middle" x="134.05" y="-49.28" font-family="monospace" font-size="14.00" fill="#e4e4e7">q0</text>
</g>
<!-- entry&#45;&gt;q0 -->
<g id="edge1" class="edge">
<title>entry&#45;&gt;q0</title>
<path fill="none" stroke="#06b6d4" d="M39.5,-54.33C45.5,-54.33 75.76,-54.33 100.27,-54.33"/>
<polygon fill="#06b6d4" stroke="#06b6d4" points="100.19,-57.83 110.19,-54.33 100.19,-50.83 100.19,-57.83"/>
</g>
<!-- q0&#45;&gt;success -->
<g id="edge3" class="edge">
<title>q0&#45;&gt;success</title>
<path fill="none" stroke="#06b6d4" d="M156.58,-54.33C191.17,-54.33 260.51,-54.33 312.34,-54.33"/>
<polygon fill="#06b6d4" stroke="#06b6d4" points="312.27,-57.83 322.27,-54.33 312.27,-50.83 312.27,-57.83"/>
<text xml:space="preserve" text-anchor="middle" x="240.23" y="-57.53" font-family="monospace" font-size="14.00" fill="#a1a1aa">BLANK / BLANK, S</text>
</g>
<!-- q0&#45;&gt;q0 -->
<g id="edge2" class="edge">
<title>q0&#45;&gt;q0</title>
<path fill="none" stroke="#06b6d4" d="M126.61,-75.41C125.69,-85.55 128.18,-94.51 134.05,-94.51 137.55,-94.51 139.84,-91.35 140.93,-86.66"/>
<polygon fill="#06b6d4" stroke="#06b6d4" points="144.42,-87.09 141.42,-76.92 137.42,-86.74 144.42,-87.09"/>
<text xml:space="preserve" text-anchor="middle" x="134.05" y="-114.21" font-family="monospace" font-size="14.00" fill="#a1a1aa">0 / 1, R</text>
<text xml:space="preserve" text-anchor="middle" x="134.05" y="-97.71" font-family="monospace" font-size="14.00" fill="#a1a1aa">1 / 0, R</text>
</g>
</g>
</svg>
