<?xml version="1.0" encoding="UTF-8" standalone="no"?>
<!DOCTYPE svg PUBLIC "-//W3C//DTD SVG 1.1//EN"
 "http://www.w3.org/Graphics/SVG/1.1/DTD/svg11.dtd">
<!-- Generated by graphviz version 14.1.2 (20260124.0452)
 -->
<!-- Title: TuringMachine Pages: 1 -->
<svg width="1102pt" height="891pt"
 viewBox="0.00 0.00 1102.00 891.00" xmlns="http://www.w3.org/2000/svg" xmlns:xlink="http://www.w3.org/1999/xlink">
<g id="graph0" class="graph" transform="scale(1 1) rotate(0) translate(4 887.33)">
<title>TuringMachine</title>
<polygon fill="white" stroke="none" points="-4,4 -4,-887.33 1098.38,-887.33 1098.38,4 -4,4"/>
<!-- done -->
<g id="node1" class="node">
<title>done</title>
<ellipse fill="green" stroke="green" cx="982.12" cy="-718.26" rx="33.44" ry="33.44"/>
<ellipse fill="none" stroke="green" cx="982.12" cy="-718.26" rx="37.44" ry="37.44"/>
<text xml:space="preserve" text-anchor="middle" x="982.12" y="-713.21" font-family="monospace" font-size="14.00" fill="#e4e4e7">done</text>
</g>
<!-- fail -->
<g id="node2" class="node">
<title>fail</title>
<ellipse fill="red" stroke="red" cx="982.12" cy="-625.26" rx="33.44" ry="33.44"/>
<ellipse fill="none" stroke="red" cx="982.12" cy="-625.26" rx="37.44" ry="37.44"/>
<text xml:space="preserve" text-anchor="middle" x="982.12" y="-620.21" font-family="monospace" font-size="14.00" fill="#e4e4e7">fail</text>
</g>
<!-- entry -->
<g id="node3" class="node">
<title>entry</title>
<ellipse fill="#06b6d4" stroke="#06b6d4" cx="1.8" cy="-320.26" rx="1.8" ry="1.8"/>
</g>
<!-- start -->
<g id="node4" class="node">
<title>start</title>
<ellipse fill="#06b6d4" stroke="#06b6d4" cx="79.67" cy="-320.26" rx="39.07" ry="39.07"/>
<text xml:space="preserve" text-anchor="middle" x="79.67" y="-315.21" font-family="monospace" font-size="14.00" fill="#e4e4e7">start</text>
</g>
<!-- entry&#45;&gt;start -->
<g id="edge1" class="edge">
<title>entry&#45;&gt;start</title>
<path fill="none" stroke="#06b6d4" d="M3.87,-320.26C7.1,-320.26 17.23,-320.26 29.03,-320.26"/>
<polygon fill="#06b6d4" stroke="#06b6d4" points="28.68,-323.76 38.68,-320.26 28.68,-316.76 28.68,-323.76"/>
</g>
<!-- start&#45;&gt;done -->
<g id="edge13" class="edge">
<title>start&#45;&gt;done</title>
<path fill="none" stroke="#06b6d4" d="M80.63,-359.6C82.96,-455.46 103.95,-700.77 253.74,-803.26 472.99,-953.26 818.89,-801.78 938.65,-741.02"/>
<polygon fill="#06b6d4" stroke="#06b6d4" points="940.22,-744.15 947.52,-736.47 937.03,-737.92 940.22,-744.15"/>
<text xml:space="preserve" text-anchor="middle" x="573.51" y="-870.03" font-family="monospace" font-size="14.00" fill="#a1a1aa">BLANK / BLANK, S</text>
</g>
<!-- move_right_end_2_q0 -->
<g id="node5" class="node">
<title>move_right_end_2_q0</title>
<ellipse fill="#06b6d4" stroke="#06b6d4" cx="371.62" cy="-320.26" rx="117.89" ry="117.89"/>
<text xml:space="preserve" text-anchor="middle" x="371.62" y="-315.21" font-family="monospace" font-size="14.00" fill="#e4e4e7">move_right_end_2_q0</text>
</g>
<!-- start&#45;&gt;move_right_end_2_q0 -->
<g id="edge7" class="edge">
<title>start&#45;&gt;move_right_end_2_q0</title>
<path fill="none" stroke="#06b6d4" d="M119.17,-320.26C150.84,-320.26 197.62,-320.26 242.26,-320.26"/>
<polygon fill="#06b6d4" stroke="#06b6d4" points="242.04,-323.76 252.04,-320.26 242.04,-316.76 242.04,-323.76"/>
<text xml:space="preserve" text-anchor="middle" x="186.24" y="-323.46" font-family="monospace" font-size="14.00" fill="#a1a1aa">1 / BLANK, R</text>
</g>
<!-- move_right_end_1_q0 -->
<g id="node9" class="node">
<title>move_right_end_1_q0</title>
<ellipse fill="#06b6d4" stroke="#06b6d4" cx="371.62" cy="-625.26" rx="117.89" ry="117.89"/>
<text xml:space="preserve" text-anchor="middle" x="371.62" y="-620.21" font-family="monospace" font-size="14.00" fill="#e4e4e7">move_right_end_1_q0</text>
</g>
<!-- start&#45;&gt;move_right_end_1_q0 -->
<g id="edge11" class="edge">
<title>start&#45;&gt;move_right_end_1_q0</title>
<path fill="none" stroke="#06b6d4" d="M107.43,-348.4C146.75,-389.77 221.99,-468.91 281.98,-532.01"/>
<polygon fill="#06b6d4" stroke="#06b6d4" points="279.12,-534.09 288.55,-538.92 284.19,-529.26 279.12,-534.09"/>
<text xml:space="preserve" text-anchor="middle" x="186.24" y="-485.1" font-family="monospace" font-size="14.00" fill="#a1a1aa">0 / BLANK, R</text>
</g>
<!-- move_right_end_2_q0&#45;&gt;move_right_end_2_q0 -->
<g id="edge2" class="edge">
<title>move_right_end_2_q0&#45;&gt;move_right_end_2_q0</title>
<path fill="none" stroke="#06b6d4" d="M342.17,-434.76C347.68,-447.73 357.5,-456.14 371.62,-456.14 381.77,-456.14 389.7,-451.8 395.4,-444.54"/>
<polygon fill="#06b6d4" stroke="#06b6d4" points="398.33,-446.47 400.32,-436.07 392.27,-442.96 398.33,-446.47"/>
<text xml:space="preserve" text-anchor="middle" x="371.62" y="-475.84" font-family="monospace" font-size="14.00" fill="#a1a1aa">1 / BLANK, R</text>
<text xml:space="preserve" text-anchor="middle" x="371.62" y="-459.34" font-family="monospace" font-size="14.00" fill="#a1a1aa">1 / BLANK, R</text>
</g>
<!-- q2 -->
<g id="node8" class="node">
<title>q2</title>
<ellipse fill="#06b6d4" stroke="#06b6d4" cx="679.69" cy="-337.26" rx="22.18" ry="22.18"/>
<text xml:space="preserve" text-anchor="middle" x="679.69" y="-332.21" font-family="monospace" font-size="14.00" fill="#e4e4e7">q2</text>
</g>
<!-- move_right_end_2_q0&#45;&gt;q2 -->
<g id="edge16" class="edge">
<title>move_right_end_2_q0&#45;&gt;q2</title>
<path fill="none" stroke="#06b6d4" d="M489.64,-326.76C545.83,-329.88 608.89,-333.38 646.12,-335.45"/>
<polygon fill="#06b6d4" stroke="#06b6d4" points="645.57,-338.92 655.75,-335.98 645.96,-331.93 645.57,-338.92"/>
<text xml:space="preserve" text-anchor="middle" x="573.51" y="-337.99" font-family="monospace" font-size="14.00" fill="#a1a1aa">1 / BLANK, R</text>
</g>
<!-- q1 -->
<g id="node6" class="node">
<title>q1</title>
<ellipse fill="#06b6d4" stroke="#06b6d4" cx="679.69" cy="-625.26" rx="22.18" ry="22.18"/>
<text xml:space="preserve" text-anchor="middle" x="679.69" y="-620.21" font-family="monospace" font-size="14.00" fill="#e4e4e7">q1</text>
</g>
<!-- q1&#45;&gt;done -->
<g id="edge14" class="edge">
<title>q1&#45;&gt;done</title>
<path fill="none" stroke="#06b6d4" d="M699.41,-636.39C705.76,-639.86 712.99,-643.51 719.87,-646.26 792.51,-675.31 881.02,-697 934.13,-708.63"/>
<polygon fill="#06b6d4" stroke="#06b6d4" points="933.23,-712.02 943.75,-710.71 934.71,-705.18 933.23,-712.02"/>
<text xml:space="preserve" text-anchor="middle" x="785.87" y="-690.52" font-family="monospace" font-size="14.00" fill="#a1a1aa">BLANK / BLANK, S</text>
</g>
<!-- q1&#45;&gt;fail -->
<g id="edge8" class="edge">
<title>q1&#45;&gt;fail</title>
<path fill="none" stroke="#06b6d4" d="M702.29,-625.26C750.27,-625.26 866.67,-625.26 932.91,-625.26"/>
<polygon fill="#06b6d4" stroke="#06b6d4" points="932.76,-628.76 942.76,-625.26 932.76,-621.76 932.76,-628.76"/>
<text xml:space="preserve" text-anchor="middle" x="785.87" y="-628.46" font-family="monospace" font-size="14.00" fill="#a1a1aa">1 / 1, S</text>
</g>
<!-- move_left_end_3_q0 -->
<g id="node7" class="node">
<title>move_left_end_3_q0</title>
<ellipse fill="#06b6d4" stroke="#06b6d4" cx="982.12" cy="-406.26" rx="112.26" ry="112.26"/>
<text xml:space="preserve" text-anchor="middle" x="982.12" y="-401.21" font-family="monospace" font-size="14.00" fill="#e4e4e7">move_left_end_3_q0</text>
</g>
<!-- q1&#45;&gt;move_left_end_3_q0 -->
<g id="edge3" class="edge">
<title>q1&#45;&gt;move_left_end_3_q0</title>
<path fill="none" stroke="#06b6d4" d="M680.12,-602.66C680.58,-570.45 686.36,-511.51 719.87,-477.76 756.21,-441.14 809.38,-422.78 858.28,-413.75"/>
<polygon fill="#06b6d4" stroke="#06b6d4" points="858.87,-417.2 868.13,-412.06 857.68,-410.3 858.87,-417.2"/>
<text xml:space="preserve" text-anchor="middle" x="785.87" y="-480.96" font-family="monospace" font-size="14.00" fill="#a1a1aa">0 / BLANK, L</text>
</g>
<!-- move_left_end_3_q0&#45;&gt;start -->
<g id="edge4" class="edge">
<title>move_left_end_3_q0&#45;&gt;start</title>
<path fill="none" stroke="#06b6d4" d="M900.26,-329.01C888.76,-315 878.08,-299.86 869.87,-284.26 853.5,-253.16 878.97,-229.62 851.87,-207.26 830.78,-189.86 333.35,-167.18 253.74,-193.26 199.28,-211.09 147.8,-253.32 115.37,-284.2"/>
<polygon fill="#06b6d4" stroke="#06b6d4" points="112.97,-281.65 108.23,-291.13 117.85,-286.68 112.97,-281.65"/>
<text xml:space="preserve" text-anchor="middle" x="573.51" y="-189.63" font-family="monospace" font-size="14.00" fill="#a1a1aa">0 / BLANK, L</text>
</g>
<!-- move_left_end_3_q0&#45;&gt;move_left_end_3_q0 -->
<g id="edge17" class="edge">
<title>move_left_end_3_q0&#45;&gt;move_left_end_3_q0</title>
<path fill="none" stroke="#06b6d4" d="M950.08,-514.07C955.72,-527.6 966.41,-536.51 982.12,-536.51 993.66,-536.51 1002.49,-531.71 1008.6,-523.79"/>
<polygon fill="#06b6d4" stroke="#06b6d4" points="1011.49,-525.8 1013.42,-515.38 1005.41,-522.32 1011.49,-525.8"/>
<text xml:space="preserve" text-anchor="middle" x="982.12" y="-556.21" font-family="monospace" font-size="14.00" fill="#a1a1aa">0 / BLANK, L</text>
<text xml:space="preserve" text-anchor="middle" x="982.12" y="-539.71" font-family="monospace" font-size="14.00" fill="#a1a1aa">0 / BLANK, L</text>
</g>
<!-- q2&#45;&gt;done -->
<g id="edge18" class="edge">
<title>q2&#45;&gt;done</title>
<path fill="none" stroke="#06b6d4" d="M681.95,-359.75C684.66,-391.86 693.19,-451.63 719.87,-494.26 760.45,-559.11 810.64,-540.31 851.87,-604.76 868.37,-630.55 849.73,-648.19 869.87,-671.26 886.32,-690.11 911.61,-701.6 933.93,-708.49"/>
<polygon fill="#06b6d4" stroke="#06b6d4" points="932.89,-711.84 943.47,-711.19 934.8,-705.1 932.89,-711.84"/>
<text xml:space="preserve" text-anchor="middle" x="785.87" y="-607.96" font-family="monospace" font-size="14.00" fill="#a1a1aa">BLANK / BLANK, S</text>
</g>
<!-- q2&#45;&gt;fail -->
<g id="edge5" class="edge">
<title>q2&#45;&gt;fail</title>
<path fill="none" stroke="#06b6d4" d="M702.14,-337.48C739.25,-339.15 814.97,-348.4 851.87,-394.76 902.9,-458.87 821.29,-512.26 869.87,-578.26 884.98,-598.79 910.84,-610.42 933.82,-616.98"/>
<polygon fill="#06b6d4" stroke="#06b6d4" points="932.79,-620.33 943.35,-619.42 934.54,-613.55 932.79,-620.33"/>
<text xml:space="preserve" text-anchor="middle" x="785.87" y="-397.96" font-family="monospace" font-size="14.00" fill="#a1a1aa">0 / 0, S</text>
</g>
<!-- move_left_end_4_q0 -->
<g id="node10" class="node">
<title>move_left_end_4_q0</title>
<ellipse fill="#06b6d4" stroke="#06b6d4" cx="982.12" cy="-112.26" rx="112.26" ry="112.26"/>
<text xml:space="preserve" text-anchor="middle" x="982.12" y="-107.21" font-family="monospace" font-size="14.00" fill="#e4e4e7">move_left_end_4_q0</text>
</g>
<!-- q2&#45;&gt;move_left_end_4_q0 -->
<g id="edge9" class="edge">
<title>q2&#45;&gt;move_left_end_4_q0</title>
<path fill="none" stroke="#06b6d4" d="M698.14,-324.19C733.5,-297.71 815.9,-235.99 882.72,-185.95"/>
<polygon fill="#06b6d4" stroke="#06b6d4" points="884.5,-188.99 890.41,-180.19 880.31,-183.38 884.5,-188.99"/>
<text xml:space="preserve" text-anchor="middle" x="785.87" y="-307.8" font-family="monospace" font-size="14.00" fill="#a1a1aa">1 / BLANK, L</text>
</g>
<!-- move_right_end_1_q0&#45;&gt;q1 -->
<g id="edge12" class="edge">
<title>move_right_end_1_q0&#45;&gt;q1</title>
<path fill="none" stroke="#06b6d4" d="M489.64,-625.26C545.83,-625.26 608.89,-625.26 646.12,-625.26"/>
<polygon fill="#06b6d4" stroke="#06b6d4" points="645.74,-628.76 655.74,-625.26 645.74,-621.76 645.74,-628.76"/>
<text xml:space="preserve" text-anchor="middle" x="573.51" y="-628.46" font-family="monospace" font-size="14.00" fill="#a1a1aa">0 / BLANK, R</text>
</g>
<!-- move_right_end_1_q0&#45;&gt;move_right_end_1_q0 -->
<g id="edge6" class="edge">
<title>move_right_end_1_q0&#45;&gt;move_right_end_1_q0</title>
<path fill="none" stroke="#06b6d4" d="M342.17,-739.76C347.68,-752.73 357.5,-761.14 371.62,-761.14 381.77,-761.14 389.7,-756.8 395.4,-749.54"/>
<polygon fill="#06b6d4" stroke="#06b6d4" points="398.33,-751.47 400.32,-741.07 392.27,-747.96 398.33,-751.47"/>
<text xml:space="preserve" text-anchor="middle" x="371.62" y="-780.84" font-family="monospace" font-size="14.00" fill="#a1a1aa">0 / BLANK, R</text>
<text xml:space="preserve" text-anchor="middle" x="371.62" y="-764.34" font-family="monospace" font-size="14.00" fill="#a1a1aa">0 / BLANK, R</text>
</g>
<!-- move_left_end_4_q0&#45;&gt;start -->
<g id="edge10" class="edge">
<title>move_left_end_4_q0&#45;&gt;start</title>
<path fill="none" stroke="#06b6d4" d="M871.88,-89.76C697.26,-60.43 352.96,-30.66 136.74,-196.26 113.1,-214.36 99.15,-244.68 91.08,-270.81"/>
<polygon fill="#06b6d4" stroke="#06b6d4" points="87.76,-269.67 88.38,-280.24 94.49,-271.59 87.76,-269.67"/>
<text xml:space="preserve" text-anchor="middle" x="573.51" y="-73.72" font-family="monospace" font-size="14.00" fill="#a1a1aa">1 / BLANK, L</text>
</g>
<!-- move_left_end_4_q0&#45;&gt;move_left_end_4_q0 -->
<g id="edge15" class="edge">
<title>move_left_end_4_q0&#45;&gt;move_left_end_4_q0</title>
<path fill="none" stroke="#06b6d4" d="M950.08,-220.07C955.72,-233.6 966.41,-242.51 982.12,-242.51 993.66,-242.51 1002.49,-237.71 1008.6,-229.79"/>
<polygon fill="#06b6d4" stroke="#06b6d4" points="1011.49,-231.8 1013.42,-221.38 1005.41,-228.32 1011.49,-231.8"/>
<text xml:space="preserve" text-anchor="middle" x="982.12" y="-262.21" font-family="monospace" font-size="14.00" fill="#a1a1aa">1 / BLANK, L</text>
<text xml:space="preserve" text-anchor="middle" x="982.12" y="-245.71" font-family="monospace" font-size="14.00" fill="#a1a1aa">1 / BLANK, L</text>
</g>
</g>
</svg>
