<?xml version="1.0" encoding="UTF-8" standalone="no"?>
<!DOCTYPE svg PUBLIC "-//W3C//DTD SVG 1.1//EN"
 "http://www.w3.org/Graphics/SVG/1.1/DTD/svg11.dtd">
<!-- Generated by graphviz version 14.1.2 (20260124.0452)
 -->
<!-- Title: TuringMachine Pages: 1 -->
<svg width="854pt" height="376pt"
 viewBox="0.00 0.00 854.00 376.00" xmlns="http://www.w3.org/2000/svg" xmlns:xlink="http://www.w3.org/1999/xlink">
<g id="graph0" class="graph" transform="scale(1 1) rotate(0) translate(4 371.98)">
<title>TuringMachine</title>
<polygon fill="white" stroke="none" points="-4,4 -4,-371.98 850.25,-371.98 850.25,4 -4,4"/>
<!-- success -->
<g id="node1" class="node">
<title>success</title>
<ellipse fill="green" stroke="green" cx="791.92" cy="-311.31" rx="50.33" ry="50.33"/>
<ellipse fill="none" stroke="green" cx="791.92" cy="-311.31" rx="54.33" ry="54.33"/>
<text xml:space="preserve" text-anchor="middle" x="791.92" y="-306.26" font-family="monospace" font-size="14.00" fill="#e4e4e7">success</text>
</g>
<!-- fail -->
<g id="node2" class="node">
<title>fail</title>
<ellipse fill="red" stroke="red" cx="37.44" cy="-150.31" rx="33.44" ry="33.44"/>
<ellipse fill="none" stroke="red" cx="37.44" cy="-150.31" rx="37.44" ry="37.44"/>
<text xml:space="preserve" text-anchor="middle" x="37.44" y="-145.26" font-family="monospace" font-size="14.00" fill="#e4e4e7">fail</text>
</g>
<!-- entry -->
<g id="node3" class="node">
<title>entry</title>
<ellipse fill="#06b6d4" stroke="#06b6d4" cx="37.44" cy="-93.31" rx="1.8" ry="1.8"/>
</g>
<!-- q0 -->
<g id="node4" class="node">
<title>q0</title>
<ellipse fill="#06b6d4" stroke="#06b6d4" cx="134.05" cy="-93.31" rx="22.18" ry="22.18"/>
<text xml:space="preserve" text-anchor="middle" x="134.05" y="-88.26" font-family="monospace" font-size="14.00" fill="#e4e4e7">q0</text>
</g>
<!-- entry&#45;&gt;q0 -->
<g id="edge1" class="edge">
<title>entry&#45;&gt;q0</title>
<path fill="none" stroke="#06b6d4" d="M39.5,-93.31C45.5,-93.31 75.76,-93.31 100.27,-93.31"/>
<polygon fill="#06b6d4" stroke="#06b6d4" points="100.19,-96.81 110.19,-93.31 100.19,-89.81 100.19,-96.81"/>
</g>
<!-- q0&#45;&gt;q0 -->
<g id="edge7" class="edge">
<title>q0&#45;&gt;q0</title>
<path fill="none" stroke="#06b6d4" d="M126.61,-114.39C125.69,-124.53 128.18,-133.48 134.05,-133.48 137.55,-133.48 139.84,-130.33 140.93,-125.64"/>
<polygon fill="#06b6d4" stroke="#06b6d4" points="144.42,-126.06 141.42,-115.9 137.42,-125.71 144.42,-126.06"/>
<text xml:space="preserve" text-anchor="middle" x="134.05" y="-153.18" font-family="monospace" font-size="14.00" fill="#a1a1aa">1 / 1, R</text>
<text xml:space="preserve" text-anchor="middle" x="134.05" y="-136.68" font-family="monospace" font-size="14.00" fill="#a1a1aa">0 / 0, R</text>
</g>
<!-- q1 -->
<g id="node5" class="node">
<title>q1</title>
<ellipse fill="#06b6d4" stroke="#06b6d4" cx="346.41" cy="-93.31" rx="22.18" ry="22.18"/>
<text xml:space="preserve" text-anchor="middle" x="346.41" y="-88.26" font-family="monospace" font-size="14.00" fill="#e4e4e7">q1</text>
</g>
<!-- q0&#45;&gt;q1 -->
<g id="edge8" class="edge">
<title>q0&#45;&gt;q1</title>
<path fill="none" stroke="#06b6d4" d="M156.38,-93.31C193.24,-93.31 269.06,-93.31 312.65,-93.31"/>
<polygon fill="#06b6d4" stroke="#06b6d4" points="312.51,-96.81 322.51,-93.31 312.51,-89.81 312.51,-96.81"/>
<text xml:space="preserve" text-anchor="middle" x="240.23" y="-96.51" font-family="monospace" font-size="14.00" fill="#a1a1aa">BLANK / BLANK, L</text>
</g>
<!-- q1&#45;&gt;q1 -->
<g id="edge15" class="edge">
<title>q1&#45;&gt;q1</title>
<path fill="none" stroke="#06b6d4" d="M329.54,-108.14C322.33,-120.53 327.95,-133.48 346.41,-133.48 359.24,-133.48 365.87,-127.22 366.3,-119.24"/>
<polygon fill="#06b6d4" stroke="#06b6d4" points="369.68,-118.33 363.68,-109.6 362.92,-120.17 369.68,-118.33"/>
<text xml:space="preserve" text-anchor="middle" x="346.41" y="-136.68" font-family="monospace" font-size="14.00" fill="#a1a1aa">X / X, L</text>
</g>
<!-- q5 -->
<g id="node6" class="node">
<title>q5</title>
<ellipse fill="#06b6d4" stroke="#06b6d4" cx="569.59" cy="-311.31" rx="22.18" ry="22.18"/>
<text xml:space="preserve" text-anchor="middle" x="569.59" y="-306.26" font-family="monospace" font-size="14.00" fill="#e4e4e7">q5</text>
</g>
<!-- q1&#45;&gt;q5 -->
<g id="edge2" class="edge">
<title>q1&#45;&gt;q5</title>
<path fill="none" stroke="#06b6d4" d="M353.55,-114.69C359.69,-133.44 370.55,-160.68 386.59,-180.31 430.02,-233.47 499.97,-275.55 539.3,-296.59"/>
<polygon fill="#06b6d4" stroke="#06b6d4" points="537.48,-299.59 547.96,-301.13 540.73,-293.39 537.48,-299.59"/>
<text xml:space="preserve" text-anchor="middle" x="452.59" y="-285.84" font-family="monospace" font-size="14.00" fill="#a1a1aa">BLANK / BLANK, R</text>
</g>
<!-- q2 -->
<g id="node7" class="node">
<title>q2</title>
<ellipse fill="#06b6d4" stroke="#06b6d4" cx="569.59" cy="-181.31" rx="22.18" ry="22.18"/>
<text xml:space="preserve" text-anchor="middle" x="569.59" y="-176.26" font-family="monospace" font-size="14.00" fill="#e4e4e7">q2</text>
</g>
<!-- q1&#45;&gt;q2 -->
<g id="edge13" class="edge">
<title>q1&#45;&gt;q2</title>
<path fill="none" stroke="#06b6d4" d="M367.43,-101.27C406.23,-116.71 491.91,-150.8 537.93,-169.11"/>
<polygon fill="#06b6d4" stroke="#06b6d4" points="536.47,-172.29 547.05,-172.74 539.05,-165.79 536.47,-172.29"/>
<text xml:space="preserve" text-anchor="middle" x="452.59" y="-163.24" font-family="monospace" font-size="14.00" fill="#a1a1aa">1 / X, R</text>
</g>
<!-- q3 -->
<g id="node9" class="node">
<title>q3</title>
<ellipse fill="#06b6d4" stroke="#06b6d4" cx="569.59" cy="-51.31" rx="22.18" ry="22.18"/>
<text xml:space="preserve" text-anchor="middle" x="569.59" y="-46.26" font-family="monospace" font-size="14.00" fill="#e4e4e7">q3</text>
</g>
<!-- q1&#45;&gt;q3 -->
<g id="edge14" class="edge">
<title>q1&#45;&gt;q3</title>
<path fill="none" stroke="#06b6d4" d="M368.62,-89.28C407.51,-81.89 490.45,-66.14 536.35,-57.43"/>
<polygon fill="#06b6d4" stroke="#06b6d4" points="536.79,-60.91 545.96,-55.6 535.48,-54.03 536.79,-60.91"/>
<text xml:space="preserve" text-anchor="middle" x="452.59" y="-88.47" font-family="monospace" font-size="14.00" fill="#a1a1aa">0 / X, R</text>
</g>
<!-- q5&#45;&gt;success -->
<g id="edge6" class="edge">
<title>q5&#45;&gt;success</title>
<path fill="none" stroke="#06b6d4" d="M592.12,-311.31C622.86,-311.31 680.65,-311.31 726.02,-311.31"/>
<polygon fill="#06b6d4" stroke="#06b6d4" points="725.76,-314.81 735.76,-311.31 725.76,-307.81 725.76,-314.81"/>
<text xml:space="preserve" text-anchor="middle" x="670.09" y="-331.01" font-family="monospace" font-size="14.00" fill="#a1a1aa">1 / 1, S</text>
<text xml:space="preserve" text-anchor="middle" x="670.09" y="-314.51" font-family="monospace" font-size="14.00" fill="#a1a1aa">0 / 0, S</text>
</g>
<!-- q5&#45;&gt;q5 -->
<g id="edge5" class="edge">
<title>q5&#45;&gt;q5</title>
<path fill="none" stroke="#06b6d4" d="M553.4,-326.56C546.92,-338.82 552.32,-351.48 569.59,-351.48 581.47,-351.48 587.73,-345.5 588.38,-337.78"/>
<polygon fill="#06b6d4" stroke="#06b6d4" points="591.79,-336.99 586.12,-328.03 584.97,-338.57 591.79,-336.99"/>
<text xml:space="preserve" text-anchor="middle" x="569.59" y="-354.68" font-family="monospace" font-size="14.00" fill="#a1a1aa">X / BLANK, R</text>
</g>
<!-- q2&#45;&gt;q2 -->
<g id="edge9" class="edge">
<title>q2&#45;&gt;q2</title>
<path fill="none" stroke="#06b6d4" d="M553.4,-196.56C546.92,-208.82 552.32,-221.48 569.59,-221.48 581.47,-221.48 587.73,-215.5 588.38,-207.78"/>
<polygon fill="#06b6d4" stroke="#06b6d4" points="591.79,-206.99 586.12,-198.03 584.97,-208.57 591.79,-206.99"/>
<text xml:space="preserve" text-anchor="middle" x="569.59" y="-257.68" font-family="monospace" font-size="14.00" fill="#a1a1aa">X / X, R</text>
<text xml:space="preserve" text-anchor="middle" x="569.59" y="-241.18" font-family="monospace" font-size="14.00" fill="#a1a1aa">0 / 0, R</text>
<text xml:space="preserve" text-anchor="middle" x="569.59" y="-224.68" font-family="monospace" font-size="14.00" fill="#a1a1aa">1 / 1, R</text>
</g>
<!-- q4 -->
<g id="node8" class="node">
<title>q4</title>
<ellipse fill="#06b6d4" stroke="#06b6d4" cx="791.92" cy="-51.31" rx="22.18" ry="22.18"/>
<text xml:space="preserve" text-anchor="middle" x="791.92" y="-46.26" font-family="monospace" font-size="14.00" fill="#e4e4e7">q4</text>
</g>
<!-- q2&#45;&gt;q4 -->
<g id="edge3" class="edge">
<title>q2&#45;&gt;q4</title>
<path fill="none" stroke="#06b6d4" d="M589.37,-170.22C627.99,-147.44 716.51,-95.21 762.3,-68.19"/>
<polygon fill="#06b6d4" stroke="#06b6d4" points="764.04,-71.23 770.88,-63.13 760.49,-65.2 764.04,-71.23"/>
<text xml:space="preserve" text-anchor="middle" x="670.09" y="-153.09" font-family="monospace" font-size="14.00" fill="#a1a1aa">BLANK / 1, L</text>
</g>
<!-- q4&#45;&gt;q1 -->
<g id="edge4" class="edge">
<title>q4&#45;&gt;q1</title>
<path fill="none" stroke="#06b6d4" d="M771.16,-42.76C728.44,-25.35 624.22,11.35 536.59,-3.81 466.85,-15.87 447.19,-20.74 386.59,-57.31 380.81,-60.79 375.14,-65.22 369.99,-69.76"/>
<polygon fill="#06b6d4" stroke="#06b6d4" points="367.87,-66.95 362.98,-76.35 372.67,-72.05 367.87,-66.95"/>
<text xml:space="preserve" text-anchor="middle" x="569.59" y="-7.01" font-family="monospace" font-size="14.00" fill="#a1a1aa">X / X, L</text>
</g>
<!-- q4&#45;&gt;q4 -->
<g id="edge12" class="edge">
<title>q4&#45;&gt;q4</title>
<path fill="none" stroke="#06b6d4" d="M773.76,-64.48C763.74,-77.34 769.79,-91.48 791.92,-91.48 808,-91.48 815.59,-84.02 814.69,-75"/>
<polygon fill="#06b6d4" stroke="#06b6d4" points="817.9,-73.61 810.68,-65.86 811.49,-76.42 817.9,-73.61"/>
<text xml:space="preserve" text-anchor="middle" x="791.92" y="-111.18" font-family="monospace" font-size="14.00" fill="#a1a1aa">1 / 1, L</text>
<text xml:space="preserve" text-anchor="middle" x="791.92" y="-94.68" font-family="monospace" font-size="14.00" fill="#a1a1aa">0 / 0, L</text>
</g>
<!-- q3&#45;&gt;q4 -->
<g id="edge11" class="edge">
<title>q3&#45;&gt;q4</title>
<path fill="none" stroke="#06b6d4" d="M592.12,-51.31C630.78,-51.31 712.22,-51.31 757.95,-51.31"/>
<polygon fill="#06b6d4" stroke="#06b6d4" points="757.79,-54.81 767.79,-51.31 757.79,-47.81 757.79,-54.81"/>
<text xml:space="preserve" text-anchor="middle" x="670.09" y="-54.51" font-family="monospace" font-size="14.00" fill="#a1a1aa">BLANK / 0, L</text>
</g>
<!-- q3&#45;&gt;q3 -->
<g id="edge10" class="edge">
<title>q3&#45;&gt;q3</title>
<path fill="none" stroke="#06b6d4" d="M553.4,-66.56C546.92,-78.82 552.32,-91.48 569.59,-91.48 581.47,-91.48 587.73,-85.5 588.38,-77.78"/>
<polygon fill="#06b6d4" stroke="#06b6d4" points="591.79,-76.99 586.12,-68.03 584.97,-78.57 591.79,-76.99"/>
<text xml:space="preserve" text-anchor="middle" x="569.59" y="-127.68" font-family="monospace" font-size="14.00" fill="#a1a1aa">X / X, R</text>
<text xml:space="preserve" text-anchor="middle" x="569.59" y="-111.18" font-family="monospace" font-size="14.00" fill="#a1a1aa">0 / 0, R</text>
<text xml:space="preserve" text-anchor="middle" x="569.59" y="-94.68" font-family="monospace" font-size="14.00" fill="#a1a1aa">1 / 1, R</text>
</g>
</g>
</svg>
