<?xml version="1.0" encoding="UTF-8" standalone="no"?>
<!DOCTYPE svg PUBLIC "-//W3C//DTD SVG 1.1//EN"
 "http://www.w3.org/Graphics/SVG/1.1/DTD/svg11.dtd">
<!-- Generated by graphviz version 14.1.2 (20260124.0452)
 -->
<!-- Title: TuringMachine Pages: 1 -->
<svg width="800pt" height="233pt"
 viewBox="0.00 0.00 800.00 233.00" xmlns="http://www.w3.org/2000/svg" xmlns:xlink="http://www.w3.org/1999/xlink">
<g id="graph0" class="graph" transform="scale(1 1) rotate(0) translate(4 228.51)">
<title>TuringMachine</title>
<polygon fill="white" stroke="none" points="-4,4 -4,-228.51 795.6,-228.51 795.6,4 -4,4"/>
<!-- success -->
<g id="node1" class="node">
<title>success</title>
<ellipse fill="green" stroke="green" cx="737.27" cy="-170.18" rx="50.33" ry="50.33"/>
<ellipse fill="none" stroke="green" cx="737.27" cy="-170.18" rx="54.33" ry="54.33"/>
<text xml:space="preserve" text-anchor="middle" x="737.27" y="-165.13" font-family="monospace" font-size="14.00" fill="#e4e4e7">success</text>
</g>
<!-- fail -->
<g id="node2" class="node">
<title>fail</title>
<ellipse fill="red" stroke="red" cx="37.44" cy="-127.18" rx="33.44" ry="33.44"/>
<ellipse fill="none" stroke="red" cx="37.44" cy="-127.18" rx="37.44" ry="37.44"/>
<text xml:space="preserve" text-anchor="middle" x="37.44" y="-122.13" font-family="monospace" font-size="14.00" fill="#e4e4e7">fail</text>
</g>
<!-- entry -->
<g id="node3" class="node">
<title>entry</title>
<ellipse fill="#06b6d4" stroke="#06b6d4" cx="37.44" cy="-70.18" rx="1.8" ry="1.8"/>
</g>
<!-- q0 -->
<g id="node4" class="node">
<title>q0</title>
<ellipse fill="#06b6d4" stroke="#06b6d4" cx="134.05" cy="-70.18" rx="22.18" ry="22.18"/>
<text xml:space="preserve" text-anchor="middle" x="134.05" y="-65.13" font-family="monospace" font-size="14.00" fill="#e4e4e7">q0</text>
</g>
<!-- entry&#45;&gt;q0 -->
<g id="edge1" class="edge">
<title>entry&#45;&gt;q0</title>
<path fill="none" stroke="#06b6d4" d="M39.5,-70.18C45.5,-70.18 75.76,-70.18 100.27,-70.18"/>
<polygon fill="#06b6d4" stroke="#06b6d4" points="100.19,-73.68 110.19,-70.18 100.19,-66.68 100.19,-73.68"/>
</g>
<!-- q0&#45;&gt;success -->
<g id="edge4" class="edge">
<title>q0&#45;&gt;success</title>
<path fill="none" stroke="#06b6d4" d="M152.7,-82.86C180.54,-102.04 237.08,-137.74 291.23,-152.18 422.63,-187.2 583.51,-182.6 671.36,-176.29"/>
<polygon fill="#06b6d4" stroke="#06b6d4" points="671.53,-179.79 681.24,-175.55 671,-172.81 671.53,-179.79"/>
<text xml:space="preserve" text-anchor="middle" x="419.59" y="-182.45" font-family="monospace" font-size="14.00" fill="#a1a1aa">0 / BLANK, S</text>
</g>
<!-- q1 -->
<g id="node6" class="node">
<title>q1</title>
<ellipse fill="#06b6d4" stroke="#06b6d4" cx="313.41" cy="-70.18" rx="22.18" ry="22.18"/>
<text xml:space="preserve" text-anchor="middle" x="313.41" y="-65.13" font-family="monospace" font-size="14.00" fill="#e4e4e7">q1</text>
</g>
<!-- q0&#45;&gt;q1 -->
<g id="edge3" class="edge">
<title>q0&#45;&gt;q1</title>
<path fill="none" stroke="#06b6d4" d="M156.45,-70.18C187.07,-70.18 243.68,-70.18 279.61,-70.18"/>
<polygon fill="#06b6d4" stroke="#06b6d4" points="279.43,-73.68 289.43,-70.18 279.43,-66.68 279.43,-73.68"/>
<text xml:space="preserve" text-anchor="middle" x="223.73" y="-73.38" font-family="monospace" font-size="14.00" fill="#a1a1aa">1 / BLANK, R</text>
</g>
<!-- q3 -->
<g id="node5" class="node">
<title>q3</title>
<ellipse fill="#06b6d4" stroke="#06b6d4" cx="737.27" cy="-22.18" rx="22.18" ry="22.18"/>
<text xml:space="preserve" text-anchor="middle" x="737.27" y="-17.13" font-family="monospace" font-size="14.00" fill="#e4e4e7">q3</text>
</g>
<!-- q3&#45;&gt;q0 -->
<g id="edge2" class="edge">
<title>q3&#45;&gt;q0</title>
<path fill="none" stroke="#06b6d4" d="M714.87,-21.8C650.53,-20.93 453.26,-20.12 291.23,-39.18 247.9,-44.27 198.63,-54.87 167.22,-62.25"/>
<polygon fill="#06b6d4" stroke="#06b6d4" points="166.49,-58.82 157.58,-64.55 168.12,-65.63 166.49,-58.82"/>
<text xml:space="preserve" text-anchor="middle" x="419.59" y="-35.88" font-family="monospace" font-size="14.00" fill="#a1a1aa">BLANK / BLANK, R</text>
</g>
<!-- q3&#45;&gt;q3 -->
<g id="edge9" class="edge">
<title>q3&#45;&gt;q3</title>
<path fill="none" stroke="#06b6d4" d="M719.12,-35.35C709.09,-48.22 715.15,-62.36 737.27,-62.36 753.35,-62.36 760.94,-54.89 760.05,-45.87"/>
<polygon fill="#06b6d4" stroke="#06b6d4" points="763.26,-44.48 756.03,-36.73 756.85,-47.3 763.26,-44.48"/>
<text xml:space="preserve" text-anchor="middle" x="737.27" y="-82.06" font-family="monospace" font-size="14.00" fill="#a1a1aa">1 / 1, L</text>
<text xml:space="preserve" text-anchor="middle" x="737.27" y="-65.56" font-family="monospace" font-size="14.00" fill="#a1a1aa">0 / 0, L</text>
</g>
<!-- q1&#45;&gt;q1 -->
<g id="edge5" class="edge">
<title>q1&#45;&gt;q1</title>
<path fill="none" stroke="#06b6d4" d="M298.41,-86.69C293.52,-98.54 298.52,-110.36 313.41,-110.36 323.41,-110.36 328.95,-105.02 330.03,-97.93"/>
<polygon fill="#06b6d4" stroke="#06b6d4" points="333.52,-97.59 328.63,-88.18 326.59,-98.58 333.52,-97.59"/>
<text xml:space="preserve" text-anchor="middle" x="313.41" y="-130.06" font-family="monospace" font-size="14.00" fill="#a1a1aa">1 / 1, R</text>
<text xml:space="preserve" text-anchor="middle" x="313.41" y="-113.56" font-family="monospace" font-size="14.00" fill="#a1a1aa">0 / 0, R</text>
</g>
<!-- q2 -->
<g id="node7" class="node">
<title>q2</title>
<ellipse fill="#06b6d4" stroke="#06b6d4" cx="525.77" cy="-70.18" rx="22.18" ry="22.18"/>
<text xml:space="preserve" text-anchor="middle" x="525.77" y="-65.13" font-family="monospace" font-size="14.00" fill="#e4e4e7">q2</text>
</g>
<!-- q1&#45;&gt;q2 -->
<g id="edge6" class="edge">
<title>q1&#45;&gt;q2</title>
<path fill="none" stroke="#06b6d4" d="M335.74,-70.18C372.59,-70.18 448.42,-70.18 492,-70.18"/>
<polygon fill="#06b6d4" stroke="#06b6d4" points="491.87,-73.68 501.87,-70.18 491.87,-66.68 491.87,-73.68"/>
<text xml:space="preserve" text-anchor="middle" x="419.59" y="-73.38" font-family="monospace" font-size="14.00" fill="#a1a1aa">BLANK / BLANK, L</text>
</g>
<!-- q2&#45;&gt;success -->
<g id="edge8" class="edge">
<title>q2&#45;&gt;success</title>
<path fill="none" stroke="#06b6d4" d="M546.1,-79.41C575.64,-93.51 633.23,-120.99 677.33,-142.04"/>
<polygon fill="#06b6d4" stroke="#06b6d4" points="675.75,-145.17 686.28,-146.32 678.77,-138.85 675.75,-145.17"/>
<text xml:space="preserve" text-anchor="middle" x="615.45" y="-138.18" font-family="monospace" font-size="14.00" fill="#a1a1aa">0 / 1, S</text>
</g>
<!-- q2&#45;&gt;q3 -->
<g id="edge7" class="edge">
<title>q2&#45;&gt;q3</title>
<path fill="none" stroke="#06b6d4" d="M547.62,-65.4C584.31,-56.99 660.63,-39.51 704.12,-29.55"/>
<polygon fill="#06b6d4" stroke="#06b6d4" points="704.75,-32.99 713.72,-27.35 703.19,-26.17 704.75,-32.99"/>
<text xml:space="preserve" text-anchor="middle" x="615.45" y="-64.2" font-family="monospace" font-size="14.00" fill="#a1a1aa">1 / BLANK, L</text>
</g>
</g>
</svg>
