<?xml version="1.0" encoding="UTF-8" standalone="no"?>
<!DOCTYPE svg PUBLIC "-//W3C//DTD SVG 1.1//EN"
 "http://www.w3.org/Graphics/SVG/1.1/DTD/svg11.dtd">
<!-- Generated by graphviz version 14.1.2 (20260124.0452)
 -->
<!-- Title: TuringMachine Pages: 1 -->
<svg width="800pt" height="157pt"
 viewBox="0.00 0.00 800.00 157.00" xmlns="http://www.w3.org/2000/svg" xmlns:xlink="http://www.w3.org/1999/xlink">
<g id="graph0" class="graph" transform="scale(1 1) rotate(0) translate(4 152.77)">
<title>TuringMachine</title>
<polygon fill="white" stroke="none" points="-4,4 -4,-152.77 795.6,-152.77 795.6,4 -4,4"/>
<!-- success -->
<g id="node1" class="node">
<title>success</title>
<ellipse fill="green" stroke="green" cx="737.27" cy="-54.33" rx="50.33" ry="50.33"/>
<ellipse fill="none" stroke="green" cx="737.27" cy="-54.33" rx="54.33" ry="54.33"/>
<text xml:space="preserve" text-anchor="middle" x="737.27" y="-49.28" font-family="monospace" font-size="14.00" fill="#e4e4e7">success</text>
</g>
<!-- fail -->
<g id="node2" class="node">
<title>fail</title>
<ellipse fill="red" stroke="red" cx="37.44" cy="-111.33" rx="33.44" ry="33.44"/>
<ellipse fill="none" stroke="red" cx="37.44" cy="-111.33" rx="37.44" ry="37.44"/>
<text xml:space="preserve" text-anchor="middle" x="37.44" y="-106.28" font-family="monospace" font-size="14.00" fill="#e4e4e7">fail</text>
</g>
<!-- entry -->
<g id="node3" class="node">
<title>entry</title>
<ellipse fill="#06b6d4" stroke="#06b6d4" cx="37.44" cy="-54.33" rx="1.8" ry="1.8"/>
</g>
<!-- q0 -->
<g id="node4" class="node">
<title>q0</title>
<ellipse fill="#06b6d4" stroke="#06b6d4" cx="134.05" cy="-54.33" rx="22.18" ry="22.18"/>
<text xml:space="preserve" text-anchor="middle" x="134.05" y="-49.28" font-family="monospace" font-size="14.00" fill="#e4e4e7">q0</text>
</g>
<!-- entry&#45;&gt;q0 -->
<g id="edge1" class="edge">
<title>entry&#45;&gt;q0</title>
<path fill="none" stroke="#06b6d4" d="M39.5,-54.33C45.5,-54.33 75.76,-54.33 100.27,-54.33"/>
<polygon fill="#06b6d4" stroke="#06b6d4" points="100.19,-57.83 110.19,-54.33 100.19,-50.83 100.19,-57.83"/>
</g>
<!-- q0&#45;&gt;q0 -->
<g id="edge3" class="edge">
<title>q0&#45;&gt;q0</title>
<path fill="none" stroke="#06b6d4" d="M126.61,-75.41C125.69,-85.55 128.18,-94.51 134.05,-94.51 137.55,-94.51 139.84,-91.35 140.93,-86.66"/>
<polygon fill="#06b6d4" stroke="#06b6d4" points="144.42,-87.09 141.42,-76.92 137.42,-86.74 144.42,-87.09"/>
<text xml:space="preserve" text-anchor="middle" x="134.05" y="-114.21" font-family="monospace" font-size="14.00" fill="#a1a1aa">0 / 0, R</text>
<text xml:space="preserve" text-anchor="middle" x="134.05" y="-97.71" font-family="monospace" font-size="14.00" fill="#a1a1aa">1 / 1, R</text>
</g>
<!-- q1 -->
<g id="node6" class="node">
<title>q1</title>
<ellipse fill="#06b6d4" stroke="#06b6d4" cx="346.41" cy="-54.33" rx="22.18" ry="22.18"/>
<text xml:space="preserve" text-anchor="middle" x="346.41" y="-49.28" font-family="monospace" font-size="14.00" fill="#e4e4e7">q1</text>
</g>
<!-- q0&#45;&gt;q1 -->
<g id="edge4" class="edge">
<title>q0&#45;&gt;q1</title>
<path fill="none" stroke="#06b6d4" d="M156.38,-54.33C193.24,-54.33 269.06,-54.33 312.65,-54.33"/>
<polygon fill="#06b6d4" stroke="#06b6d4" points="312.51,-57.83 322.51,-54.33 312.51,-50.83 312.51,-57.83"/>
<text xml:space="preserve" text-anchor="middle" x="240.23" y="-57.53" font-family="monospace" font-size="14.00" fill="#a1a1aa">BLANK / BLANK, L</text>
</g>
<!-- q2 -->
<g id="node5" class="node">
<title>q2</title>
<ellipse fill="#06b6d4" stroke="#06b6d4" cx="492.77" cy="-54.33" rx="22.18" ry="22.18"/>
<text xml:space="preserve" text-anchor="middle" x="492.77" y="-49.28" font-family="monospace" font-size="14.00" fill="#e4e4e7">q2</text>
</g>
<!-- q2&#45;&gt;success -->
<g id="edge2" class="edge">
<title>q2&#45;&gt;success</title>
<path fill="none" stroke="#06b6d4" d="M515.29,-54.33C549.88,-54.33 619.23,-54.33 671.06,-54.33"/>
<polygon fill="#06b6d4" stroke="#06b6d4" points="670.98,-57.83 680.98,-54.33 670.98,-50.83 670.98,-57.83"/>
<text xml:space="preserve" text-anchor="middle" x="598.95" y="-57.53" font-family="monospace" font-size="14.00" fill="#a1a1aa">BLANK / BLANK, S</text>
</g>
<!-- q2&#45;&gt;q2 -->
<g id="edge7" class="edge">
<title>q2&#45;&gt;q2</title>
<path fill="none" stroke="#06b6d4" d="M479.9,-72.93C477.05,-84.04 481.33,-94.51 492.77,-94.51 500.09,-94.51 504.49,-90.21 505.94,-84.2"/>
<polygon fill="#06b6d4" stroke="#06b6d4" points="509.45,-84.34 505.67,-74.44 502.45,-84.53 509.45,-84.34"/>
<text xml:space="preserve" text-anchor="middle" x="492.77" y="-114.21" font-family="monospace" font-size="14.00" fill="#a1a1aa">0 / 1, L</text>
<text xml:space="preserve" text-anchor="middle" x="492.77" y="-97.71" font-family="monospace" font-size="14.00" fill="#a1a1aa">1 / 0, L</text>
</g>
<!-- q1&#45;&gt;q2 -->
<g id="edge6" class="edge">
<title>q1&#45;&gt;q2</title>
<path fill="none" stroke="#06b6d4" d="M369.02,-54.33C392.87,-54.33 431.5,-54.33 459.06,-54.33"/>
<polygon fill="#06b6d4" stroke="#06b6d4" points="458.97,-57.83 468.97,-54.33 458.97,-50.83 458.97,-57.83"/>
<text xml:space="preserve" text-anchor="middle" x="419.59" y="-57.53" font-family="monospace" font-size="14.00" fill="#a1a1aa">1 / 1, L</text>
</g>
<!-- q1&#45;&gt;q1 -->
<g id="edge5" class="edge">
<title>q1&#45;&gt;q1</title>
<path fill="none" stroke="#06b6d4" d="M333.55,-72.93C330.69,-84.04 334.98,-94.51 346.41,-94.51 353.74,-94.51 358.13,-90.21 359.59,-84.2"/>
<polygon fill="#06b6d4" stroke="#06b6d4" points="363.09,-84.34 359.32,-74.44 356.1,-84.53 363.09,-84.34"/>
<text xml:space="preserve" text-anchor="middle" x="346.41" y="-97.71" font-family="monospace" font-size="14.00" fill="#a1a1aa">0 / 0, L</text>
</g>
</g>
</svg>
