<?xml version="1.0" encoding="UTF-8" standalone="no"?>
<!DOCTYPE svg PUBLIC "-//W3C//DTD SVG 1.1//EN"
 "http://www.w3.org/Graphics/SVG/1.1/DTD/svg11.dtd">
<!-- Generated by graphviz version 14.1.2 (20260124.0452)
 -->
<!-- Title: TuringMachine Pages: 1 -->
<svg width="1125pt" height="264pt"
 viewBox="0.00 0.00 1125.00 264.00" xmlns="http://www.w3.org/2000/svg" xmlns:xlink="http://www.w3.org/1999/xlink">
<g id="graph0" class="graph" transform="scale(1 1) rotate(0) translate(4 260.33)">
<title>TuringMachine</title>
<polygon fill="white" stroke="none" points="-4,4 -4,-260.33 1120.78,-260.33 1120.78,4 -4,4"/>
<!-- success -->
<g id="node1" class="node">
<title>success</title>
<ellipse fill="green" stroke="green" cx="345.56" cy="-202" rx="50.33" ry="50.33"/>
<ellipse fill="none" stroke="green" cx="345.56" cy="-202" rx="54.33" ry="54.33"/>
<text xml:space="preserve" text-anchor="middle" x="345.56" y="-196.95" font-family="monospace" font-size="14.00" fill="#e4e4e7">success</text>
</g>
<!-- fail -->
<g id="node2" class="node">
<title>fail</title>
<ellipse fill="red" stroke="red" cx="37.44" cy="-130" rx="33.44" ry="33.44"/>
<ellipse fill="none" stroke="red" cx="37.44" cy="-130" rx="37.44" ry="37.44"/>
<text xml:space="preserve" text-anchor="middle" x="37.44" y="-124.95" font-family="monospace" font-size="14.00" fill="#e4e4e7">fail</text>
</g>
<!-- entry -->
<g id="node3" class="node">
<title>entry</title>
<ellipse fill="#06b6d4" stroke="#06b6d4" cx="37.44" cy="-73" rx="1.8" ry="1.8"/>
</g>
<!-- q0 -->
<g id="node4" class="node">
<title>q0</title>
<ellipse fill="#06b6d4" stroke="#06b6d4" cx="134.05" cy="-73" rx="22.18" ry="22.18"/>
<text xml:space="preserve" text-anchor="middle" x="134.05" y="-67.95" font-family="monospace" font-size="14.00" fill="#e4e4e7">q0</text>
</g>
<!-- entry&#45;&gt;q0 -->
<g id="edge1" class="edge">
<title>entry&#45;&gt;q0</title>
<path fill="none" stroke="#06b6d4" d="M39.5,-73C45.5,-73 75.76,-73 100.27,-73"/>
<polygon fill="#06b6d4" stroke="#06b6d4" points="100.19,-76.5 110.19,-73 100.19,-69.5 100.19,-76.5"/>
</g>
<!-- q0&#45;&gt;success -->
<g id="edge2" class="edge">
<title>q0&#45;&gt;success</title>
<path fill="none" stroke="#06b6d4" d="M153.28,-84.22C183.24,-102.67 244.06,-140.12 289.11,-167.86"/>
<polygon fill="#06b6d4" stroke="#06b6d4" points="287.12,-170.74 297.47,-173 290.79,-164.78 287.12,-170.74"/>
<text xml:space="preserve" text-anchor="middle" x="223.73" y="-159.79" font-family="monospace" font-size="14.00" fill="#a1a1aa">0 / 0, S</text>
</g>
<!-- q1 -->
<g id="node5" class="node">
<title>q1</title>
<ellipse fill="#06b6d4" stroke="#06b6d4" cx="345.56" cy="-73" rx="22.18" ry="22.18"/>
<text xml:space="preserve" text-anchor="middle" x="345.56" y="-67.95" font-family="monospace" font-size="14.00" fill="#e4e4e7">q1</text>
</g>
<!-- q0&#45;&gt;q1 -->
<g id="edge9" class="edge">
<title>q0&#45;&gt;q1</title>
<path fill="none" stroke="#06b6d4" d="M156.69,-73C193.48,-73 268.45,-73 311.74,-73"/>
<polygon fill="#06b6d4" stroke="#06b6d4" points="311.53,-76.5 321.53,-73 311.53,-69.5 311.53,-76.5"/>
<text xml:space="preserve" text-anchor="middle" x="223.73" y="-76.2" font-family="monospace" font-size="14.00" fill="#a1a1aa">1 / BLANK, R</text>
</g>
<!-- q1&#45;&gt;q1 -->
<g id="edge3" class="edge">
<title>q1&#45;&gt;q1</title>
<path fill="none" stroke="#06b6d4" d="M328.83,-87.84C321.67,-100.23 327.25,-113.18 345.56,-113.18 358.29,-113.18 364.87,-106.92 365.29,-98.94"/>
<polygon fill="#06b6d4" stroke="#06b6d4" points="368.67,-98.04 362.69,-89.3 361.91,-99.86 368.67,-98.04"/>
<text xml:space="preserve" text-anchor="middle" x="345.56" y="-116.38" font-family="monospace" font-size="14.00" fill="#a1a1aa">1 / 1, R</text>
</g>
<!-- q2 -->
<g id="node6" class="node">
<title>q2</title>
<ellipse fill="#06b6d4" stroke="#06b6d4" cx="567.89" cy="-96" rx="22.18" ry="22.18"/>
<text xml:space="preserve" text-anchor="middle" x="567.89" y="-90.95" font-family="monospace" font-size="14.00" fill="#e4e4e7">q2</text>
</g>
<!-- q1&#45;&gt;q2 -->
<g id="edge15" class="edge">
<title>q1&#45;&gt;q2</title>
<path fill="none" stroke="#06b6d4" d="M368.09,-75.25C406.85,-79.29 488.61,-87.83 534.28,-92.6"/>
<polygon fill="#06b6d4" stroke="#06b6d4" points="533.78,-96.06 544.09,-93.62 534.51,-89.1 533.78,-96.06"/>
<text xml:space="preserve" text-anchor="middle" x="450.89" y="-90.44" font-family="monospace" font-size="14.00" fill="#a1a1aa">0 / 0, R</text>
</g>
<!-- q6 -->
<g id="node7" class="node">
<title>q6</title>
<ellipse fill="#06b6d4" stroke="#06b6d4" cx="758.07" cy="-50" rx="22.18" ry="22.18"/>
<text xml:space="preserve" text-anchor="middle" x="758.07" y="-44.95" font-family="monospace" font-size="14.00" fill="#e4e4e7">q6</text>
</g>
<!-- q2&#45;&gt;q6 -->
<g id="edge4" class="edge">
<title>q2&#45;&gt;q6</title>
<path fill="none" stroke="#06b6d4" d="M589.75,-90.9C622.53,-82.89 686.34,-67.29 724.99,-57.84"/>
<polygon fill="#06b6d4" stroke="#06b6d4" points="725.76,-61.26 734.65,-55.48 724.1,-54.46 725.76,-61.26"/>
<text xml:space="preserve" text-anchor="middle" x="684.89" y="-77.58" font-family="monospace" font-size="14.00" fill="#a1a1aa">0 / 0, L</text>
</g>
<!-- q3 -->
<g id="node8" class="node">
<title>q3</title>
<ellipse fill="#06b6d4" stroke="#06b6d4" cx="758.07" cy="-185" rx="22.18" ry="22.18"/>
<text xml:space="preserve" text-anchor="middle" x="758.07" y="-179.95" font-family="monospace" font-size="14.00" fill="#e4e4e7">q3</text>
</g>
<!-- q2&#45;&gt;q3 -->
<g id="edge16" class="edge">
<title>q2&#45;&gt;q3</title>
<path fill="none" stroke="#06b6d4" d="M586.3,-108.87C602.62,-120.49 628.02,-137.5 651.89,-149 675.65,-160.45 704.03,-169.94 725.31,-176.29"/>
<polygon fill="#06b6d4" stroke="#06b6d4" points="724.3,-179.64 734.88,-179.07 726.25,-172.92 724.3,-179.64"/>
<text xml:space="preserve" text-anchor="middle" x="684.89" y="-176.68" font-family="monospace" font-size="14.00" fill="#a1a1aa">1 / X, R</text>
</g>
<!-- q6&#45;&gt;q6 -->
<g id="edge7" class="edge">
<title>q6&#45;&gt;q6</title>
<path fill="none" stroke="#06b6d4" d="M745.2,-68.6C742.34,-79.72 746.63,-90.18 758.07,-90.18 765.39,-90.18 769.78,-85.88 771.24,-79.88"/>
<polygon fill="#06b6d4" stroke="#06b6d4" points="774.75,-80.01 770.97,-70.11 767.75,-80.2 774.75,-80.01"/>
<text xml:space="preserve" text-anchor="middle" x="758.07" y="-93.38" font-family="monospace" font-size="14.00" fill="#a1a1aa">X / 1, L</text>
</g>
<!-- q7 -->
<g id="node11" class="node">
<title>q7</title>
<ellipse fill="#06b6d4" stroke="#06b6d4" cx="904.42" cy="-25" rx="22.18" ry="22.18"/>
<text xml:space="preserve" text-anchor="middle" x="904.42" y="-19.95" font-family="monospace" font-size="14.00" fill="#e4e4e7">q7</text>
</g>
<!-- q6&#45;&gt;q7 -->
<g id="edge13" class="edge">
<title>q6&#45;&gt;q7</title>
<path fill="none" stroke="#06b6d4" d="M780.37,-46.31C804.39,-42.15 843.7,-35.34 871.41,-30.54"/>
<polygon fill="#06b6d4" stroke="#06b6d4" points="871.76,-34.04 881.01,-28.88 870.56,-27.14 871.76,-34.04"/>
<text xml:space="preserve" text-anchor="middle" x="831.25" y="-45.81" font-family="monospace" font-size="14.00" fill="#a1a1aa">0 / 0, L</text>
</g>
<!-- q3&#45;&gt;q3 -->
<g id="edge10" class="edge">
<title>q3&#45;&gt;q3</title>
<path fill="none" stroke="#06b6d4" d="M745.2,-203.6C742.34,-214.72 746.63,-225.18 758.07,-225.18 765.39,-225.18 769.78,-220.88 771.24,-214.88"/>
<polygon fill="#06b6d4" stroke="#06b6d4" points="774.75,-215.01 770.97,-205.11 767.75,-215.2 774.75,-215.01"/>
<text xml:space="preserve" text-anchor="middle" x="758.07" y="-228.38" font-family="monospace" font-size="14.00" fill="#a1a1aa">1 / 1, R</text>
</g>
<!-- q4 -->
<g id="node9" class="node">
<title>q4</title>
<ellipse fill="#06b6d4" stroke="#06b6d4" cx="904.42" cy="-185" rx="22.18" ry="22.18"/>
<text xml:space="preserve" text-anchor="middle" x="904.42" y="-179.95" font-family="monospace" font-size="14.00" fill="#e4e4e7">q4</text>
</g>
<!-- q3&#45;&gt;q4 -->
<g id="edge5" class="edge">
<title>q3&#45;&gt;q4</title>
<path fill="none" stroke="#06b6d4" d="M780.68,-185C804.52,-185 843.16,-185 870.71,-185"/>
<polygon fill="#06b6d4" stroke="#06b6d4" points="870.62,-188.5 880.62,-185 870.62,-181.5 870.62,-188.5"/>
<text xml:space="preserve" text-anchor="middle" x="831.25" y="-188.2" font-family="monospace" font-size="14.00" fill="#a1a1aa">0 / 0, R</text>
</g>
<!-- q4&#45;&gt;q4 -->
<g id="edge11" class="edge">
<title>q4&#45;&gt;q4</title>
<path fill="none" stroke="#06b6d4" d="M891.56,-203.6C888.7,-214.72 892.99,-225.18 904.42,-225.18 911.75,-225.18 916.14,-220.88 917.6,-214.88"/>
<polygon fill="#06b6d4" stroke="#06b6d4" points="921.11,-215.01 917.33,-205.11 914.11,-215.2 921.11,-215.01"/>
<text xml:space="preserve" text-anchor="middle" x="904.42" y="-228.38" font-family="monospace" font-size="14.00" fill="#a1a1aa">1 / 1, R</text>
</g>
<!-- q5 -->
<g id="node10" class="node">
<title>q5</title>
<ellipse fill="#06b6d4" stroke="#06b6d4" cx="1083.78" cy="-151" rx="22.18" ry="22.18"/>
<text xml:space="preserve" text-anchor="middle" x="1083.78" y="-145.95" font-family="monospace" font-size="14.00" fill="#e4e4e7">q5</text>
</g>
<!-- q4&#45;&gt;q5 -->
<g id="edge12" class="edge">
<title>q4&#45;&gt;q5</title>
<path fill="none" stroke="#06b6d4" d="M926.47,-180.97C957.18,-175.08 1014.56,-164.08 1050.6,-157.17"/>
<polygon fill="#06b6d4" stroke="#06b6d4" points="1050.84,-160.69 1060,-155.37 1049.52,-153.81 1050.84,-160.69"/>
<text xml:space="preserve" text-anchor="middle" x="994.1" y="-179.98" font-family="monospace" font-size="14.00" fill="#a1a1aa">BLANK / 1, L</text>
</g>
<!-- q5&#45;&gt;q2 -->
<g id="edge17" class="edge">
<title>q5&#45;&gt;q2</title>
<path fill="none" stroke="#06b6d4" d="M1061.25,-148.97C1006.75,-143.8 858.93,-129.57 735.89,-116 689.03,-110.83 634.84,-104.23 601.22,-100.05"/>
<polygon fill="#06b6d4" stroke="#06b6d4" points="602.08,-96.63 591.73,-98.87 601.22,-103.58 602.08,-96.63"/>
<text xml:space="preserve" text-anchor="middle" x="831.25" y="-132.77" font-family="monospace" font-size="14.00" fill="#a1a1aa">X / X, R</text>
</g>
<!-- q5&#45;&gt;q5 -->
<g id="edge6" class="edge">
<title>q5&#45;&gt;q5</title>
<path fill="none" stroke="#06b6d4" d="M1068.78,-167.51C1063.89,-179.37 1068.89,-191.18 1083.78,-191.18 1093.78,-191.18 1099.32,-185.85 1100.4,-178.75"/>
<polygon fill="#06b6d4" stroke="#06b6d4" points="1103.89,-178.41 1099,-169.01 1096.96,-179.4 1103.89,-178.41"/>
<text xml:space="preserve" text-anchor="middle" x="1083.78" y="-210.88" font-family="monospace" font-size="14.00" fill="#a1a1aa">0 / 0, L</text>
<text xml:space="preserve" text-anchor="middle" x="1083.78" y="-194.38" font-family="monospace" font-size="14.00" fill="#a1a1aa">1 / 1, L</text>
</g>
<!-- q7&#45;&gt;q0 -->
<g id="edge14" class="edge">
<title>q7&#45;&gt;q0</title>
<path fill="none" stroke="#06b6d4" d="M882.58,-19.08C854.69,-11.68 803.58,0 759.07,0 344.56,0 344.56,0 344.56,0 276.64,0 202.89,-34.63 163.56,-56.19"/>
<polygon fill="#06b6d4" stroke="#06b6d4" points="161.97,-53.07 154.96,-61.01 165.4,-59.17 161.97,-53.07"/>
<text xml:space="preserve" text-anchor="middle" x="567.89" y="-3.2" font-family="monospace" font-size="14.00" fill="#a1a1aa">BLANK / BLANK, R</text>
</g>
<!-- q7&#45;&gt;q7 -->
<g id="edge8" class="edge">
<title>q7&#45;&gt;q7</title>
<path fill="none" stroke="#06b6d4" d="M891.56,-43.6C888.7,-54.72 892.99,-65.18 904.42,-65.18 911.75,-65.18 916.14,-60.88 917.6,-54.88"/>
<polygon fill="#06b6d4" stroke="#06b6d4" points="921.11,-55.01 917.33,-45.11 914.11,-55.2 921.11,-55.01"/>
<text xml:space="preserve" text-anchor="middle" x="904.42" y="-68.38" font-family="monospace" font-size="14.00" fill="#a1a1aa">1 / 1, L</text>
</g>
</g>
</svg>
